<svg version="1.1" xmlns="http://www.w3.org/2000/svg" xmlns:xlink="http://www.w3.org/1999/xlink" width="512.000000pt" height="512.000000pt" viewBox="0,0,256,256"><g fill="#b8b5b5" fill-rule="nonzero" stroke="none" stroke-width="1" stroke-linecap="butt" stroke-linejoin="miter" stroke-miterlimit="10" stroke-dasharray="" stroke-dashoffset="0" font-family="none" font-weight="none" font-size="none" text-anchor="none" style="mix-blend-mode: normal"><g transform="translate(0,0)"><g><g transform="translate(-0.10223,-0.0725) scale(0.5,0.5)"><g transform="translate(0,512) scale(0.1,-0.1)"><path d="M2420,5114c-84,-11 -201,-39 -280,-66c-436,-153 -747,-509 -846,-970c-26,-117 -25,-380 0,-498c165,-766 934,-1214 1671,-974c309,101 587,338 738,631c160,309 189,668 81,992c-148,446 -510,768 -974,867c-73,15 -320,27 -390,18zM2720,4905c244,-37 425,-129 606,-309c142,-143 227,-283 278,-460c162,-557 -134,-1137 -678,-1332c-235,-83 -475,-85 -712,-5c-368,124 -633,420 -721,806c-26,111 -23,356 5,468c58,234 173,424 349,578c239,209 558,302 873,254z"></path><path d="M1335,2615c-130,-28 -239,-97 -367,-233c-173,-185 -287,-349 -393,-567c-84,-172 -124,-280 -166,-449c-50,-207 -62,-324 -63,-616c-1,-263 -1,-266 26,-345c67,-197 215,-334 414,-385c75,-20 117,-20 1774,-20c1657,0 1699,0 1774,20c200,51 350,191 412,385c22,68 27,104 31,240c6,177 -8,422 -32,560c-38,222 -96,399 -200,610c-87,179 -182,324 -308,471c-225,263 -358,340 -582,338c-130,-1 -180,-16 -325,-99c-226,-129 -396,-183 -651,-206c-86,-8 -152,-8 -238,0c-267,24 -425,78 -712,239c-113,64 -264,86 -394,57zM1618,2388c240,-126 308,-157 394,-186c466,-154 980,-104 1392,137c156,91 242,109 357,75c80,-23 135,-63 241,-172c280,-288 463,-645 540,-1050c20,-105 23,-149 23,-417v-300l-28,-57c-39,-79 -104,-143 -185,-181l-67,-32l-1695,-3c-1110,-1 -1711,1 -1742,8c-155,33 -267,149 -299,309c-16,83 -6,466 16,611c69,445 273,845 590,1153c117,115 196,149 323,143c59,-2 84,-9 140,-38z"></path></g></g></g></g></g></svg>