<svg version="1.1" xmlns="http://www.w3.org/2000/svg" xmlns:xlink="http://www.w3.org/1999/xlink" width="512.000000pt" height="512.000000pt" viewBox="0,0,256,256"><g fill="#fdfdfd" fill-rule="nonzero" stroke="none" stroke-width="1" stroke-linecap="butt" stroke-linejoin="miter" stroke-miterlimit="10" stroke-dasharray="" stroke-dashoffset="0" font-family="none" font-weight="none" font-size="none" text-anchor="none" style="mix-blend-mode: normal"><g transform="translate(0,-0.00573) scale(0.5,0.5)"><g transform="translate(0,512) scale(0.1,-0.1)"><path d="M2471,5103c-24,-9 -63,-35 -86,-58c-80,-79 -75,-8 -75,-1187v-1048h-1048c-1179,0 -1108,4 -1187,-75c-98,-98 -98,-252 0,-350c79,-79 8,-75 1187,-75h1048v-1048c0,-1179 -4,-1108 75,-1187c98,-98 252,-98 350,0c79,79 75,8 75,1187v1048h1048c1179,0 1108,-4 1187,75c98,98 98,252 0,350c-79,79 -8,75 -1187,75h-1048v1048c0,1179 4,1108 -75,1187c-69,70 -169,91 -264,58z"></path></g></g></g></svg>