<svg version="1.1" xmlns="http://www.w3.org/2000/svg" xmlns:xlink="http://www.w3.org/1999/xlink" width="512.000000pt" height="512.000000pt" viewBox="0,0,256,256"><g fill="#ffffff" fill-rule="nonzero" stroke="none" stroke-width="1" stroke-linecap="butt" stroke-linejoin="miter" stroke-miterlimit="10" stroke-dasharray="" stroke-dashoffset="0" font-family="none" font-weight="none" font-size="none" text-anchor="none" style="mix-blend-mode: normal"><g transform="translate(0.00891,-0.04025) scale(0.5,0.5)"><g transform="translate(0,512) scale(0.1,-0.1)"><path d="M2656,4986c-21,-8 -56,-32 -78,-53c-63,-62 -68,-92 -68,-440v-304l-27,-37c-91,-122 -475,-560 -825,-938l-158,-172v-1313v-1314l238,-88c255,-94 354,-126 472,-152c213,-48 216,-48 1180,-52c648,-3 933,-1 980,7c238,41 420,257 420,499c0,93 -18,162 -62,242l-33,61l60,62c66,67 106,141 131,238c30,118 4,281 -60,378l-24,37l62,64c158,163 190,395 81,595l-33,61l52,52c205,203 208,507 6,712c-40,41 -90,79 -129,98c-116,59 -136,61 -788,61c-326,0 -593,3 -593,6c0,3 37,132 81,286l82,282l-6,185c-7,221 -26,310 -92,448c-139,286 -424,478 -743,498c-63,4 -98,1 -126,-9z"></path><path d="M0,1805v-1585h600h600v1585v1585h-600h-600z"></path></g></g></g></svg>