<svg version="1.1" xmlns="http://www.w3.org/2000/svg" xmlns:xlink="http://www.w3.org/1999/xlink" width="512.000000pt" height="512.000000pt" viewBox="0,0,256,256"><g fill="#ffffff" fill-rule="nonzero" stroke="none" stroke-width="1" stroke-linecap="butt" stroke-linejoin="miter" stroke-miterlimit="10" stroke-dasharray="" stroke-dashoffset="0" font-family="none" font-weight="none" font-size="none" text-anchor="none" style="mix-blend-mode: normal"><g transform="translate(-0.09192,-0.00339) scale(0.5,0.5)"><g transform="translate(0,512) scale(0.1,-0.1)"><path d="M895,3506c-67,-29 -105,-105 -90,-183c6,-34 100,-131 843,-875c744,-743 841,-837 875,-843c94,-18 39,-66 949,843c909,909 861,855 843,949c-9,49 -69,109 -118,118c-94,18 -46,59 -875,-768l-762,-762l-758,757c-424,424 -769,762 -785,768c-38,14 -85,12 -122,-4z"></path></g></g></g></svg>