<svg version="1.1" xmlns="http://www.w3.org/2000/svg" xmlns:xlink="http://www.w3.org/1999/xlink" width="512.000000pt" height="512.000000pt" viewBox="0,0,256,256"><g fill="#b8b5b5" fill-rule="nonzero" stroke="none" stroke-width="1" stroke-linecap="butt" stroke-linejoin="miter" stroke-miterlimit="10" stroke-dasharray="" stroke-dashoffset="0" font-family="none" font-weight="none" font-size="none" text-anchor="none" style="mix-blend-mode: normal"><g transform="translate(0,0)"><g><g transform="translate(-0.02945,-0.0135) scale(0.5,0.5)"><g transform="translate(0,512) scale(0.1,-0.1)"><path d="M2270,4735c-320,-45 -643,-166 -910,-342c-535,-353 -890,-919 -976,-1553c-18,-135 -18,-425 0,-560c86,-634 441,-1200 976,-1553c274,-181 582,-295 925,-342c180,-25 492,-17 677,19c583,111 1102,458 1431,956c81,122 193,346 237,475c138,399 159,857 56,1262c-77,305 -237,619 -438,858c-88,105 -245,259 -338,332c-312,244 -704,405 -1100,453c-114,14 -423,11 -540,-5zM2845,4366c672,-112 1223,-576 1443,-1217c186,-541 109,-1120 -213,-1604c-222,-334 -545,-582 -926,-713c-541,-186 -1121,-109 -1604,213c-425,284 -702,716 -792,1235c-23,130 -23,430 0,560c90,519 367,952 792,1235c271,181 513,266 875,309c67,8 336,-4 425,-18z"></path><path d="M2438,3830c-294,-53 -533,-284 -592,-572c-32,-153 -14,-250 55,-299c29,-20 46,-24 111,-24c62,0 82,4 104,21c51,37 64,66 79,167c24,158 79,244 197,308c60,33 67,34 168,34c96,0 110,-3 158,-28c74,-39 124,-87 160,-155c80,-150 51,-327 -73,-441c-66,-59 -135,-88 -245,-100c-62,-7 -88,-15 -114,-34c-65,-50 -66,-58 -66,-424c0,-321 1,-329 23,-368c62,-112 252,-112 314,0c22,38 23,51 23,258v217l28,11c166,67 286,153 372,266c95,125 137,242 147,403c20,335 -194,638 -522,740c-79,24 -249,35 -327,20z"></path><path d="M2511,1640c-39,-9 -77,-36 -105,-73c-32,-43 -34,-150 -4,-201c66,-113 251,-113 315,0c25,43 31,123 12,171c-30,79 -127,125 -218,103z"></path></g></g></g></g></g></svg>