<svg version="1.1" xmlns="http://www.w3.org/2000/svg" xmlns:xlink="http://www.w3.org/1999/xlink" width="512.000000pt" height="512.000000pt" viewBox="0,0,256,256"><g fill="#ffffff" fill-rule="nonzero" stroke="none" stroke-width="1" stroke-linecap="butt" stroke-linejoin="miter" stroke-miterlimit="10" stroke-dasharray="" stroke-dashoffset="0" font-family="none" font-weight="none" font-size="none" text-anchor="none" style="mix-blend-mode: normal"><g transform="translate(-0.00687,-0.07889) scale(0.5,0.5)"><g transform="translate(0,512) scale(0.1,-0.1)"><path d="M2323,4549c-356,-41 -732,-197 -1008,-417c-594,-473 -866,-1232 -714,-1987c28,-141 90,-319 159,-464c313,-648 960,-1082 1670,-1119c581,-31 1105,158 1509,543c829,790 829,2120 0,2910c-309,295 -719,485 -1154,535c-104,11 -358,11 -462,-1zM2800,4326c217,-29 377,-78 575,-176c77,-39 183,-100 235,-137c123,-88 327,-292 413,-413c81,-114 194,-339 236,-470c277,-855 -102,-1775 -894,-2173c-148,-73 -357,-139 -540,-168c-118,-19 -418,-17 -540,4c-736,125 -1300,654 -1459,1368c-130,586 36,1194 443,1621c263,277 607,463 973,527c62,11 129,22 148,24c87,9 315,5 410,-7z"></path><path d="M2493,3450c-80,-18 -118,-72 -111,-157c4,-46 10,-60 41,-91c34,-33 42,-37 104,-40c58,-3 73,0 103,20c116,78 74,254 -65,271c-22,2 -55,1 -72,-3z"></path><path d="M2464,2856c-17,-8 -40,-26 -52,-41c-22,-28 -22,-29 -22,-579c0,-535 1,-552 20,-584c56,-92 222,-75 250,26c6,23 10,231 10,556c0,503 -1,521 -20,562c-33,67 -111,92 -186,60z"></path></g></g></g></svg>