<svg version="1.1" xmlns="http://www.w3.org/2000/svg" xmlns:xlink="http://www.w3.org/1999/xlink" width="512.000000pt" height="512.000000pt" viewBox="0,0,256,256"><g fill="#fffbfb" fill-rule="nonzero" stroke="none" stroke-width="1" stroke-linecap="butt" stroke-linejoin="miter" stroke-miterlimit="10" stroke-dasharray="" stroke-dashoffset="0" font-family="none" font-weight="none" font-size="none" text-anchor="none" style="mix-blend-mode: normal"><g transform="translate(0,0.011) scale(0.5,0.5)"><g transform="translate(0,512) scale(0.1,-0.1)"><path d="M2453,5105c-141,-38 -250,-141 -299,-280c-13,-37 -19,-97 -23,-228l-6,-179l-85,-33c-194,-74 -360,-178 -502,-313c-185,-177 -314,-378 -392,-613c-68,-203 -68,-204 -76,-764c-8,-535 -12,-586 -60,-760c-28,-98 -53,-161 -109,-273c-72,-143 -161,-261 -297,-397c-155,-154 -169,-180 -169,-305c0,-80 4,-102 23,-138c35,-66 88,-119 150,-149l57,-28l577,-3l578,-3l6,-27c32,-148 91,-264 181,-361c142,-155 304,-234 507,-248c219,-15 412,61 576,226c112,113 168,218 204,383l6,27l578,3l577,3l57,28c62,30 115,83 150,149c19,36 23,58 23,138c0,126 -15,152 -169,305c-206,205 -332,413 -407,672c-46,161 -51,225 -59,758c-8,559 -9,561 -75,761c-78,236 -208,440 -393,616c-142,135 -308,239 -502,313l-85,33l-6,179c-5,144 -10,189 -26,235c-78,212 -298,330 -510,273zM2663,4878c23,-13 55,-42 72,-66c30,-43 30,-45 33,-190l3,-147h-210h-211v133c0,97 4,143 15,170c49,116 186,162 298,100zM2792,4244c457,-87 837,-417 982,-854c57,-173 58,-187 66,-735c7,-547 11,-593 67,-785c85,-293 267,-589 478,-776c95,-85 112,-123 79,-185c-32,-63 89,-59 -1904,-59c-1993,0 -1872,-4 -1904,59c-33,62 -16,100 79,185c211,187 393,483 478,776c55,191 59,238 67,785c8,547 9,563 66,735c98,295 315,557 592,714c134,76 318,135 484,156c93,11 264,4 370,-16zM3076,613c-14,-60 -75,-171 -122,-222c-103,-114 -233,-172 -389,-174c-156,-1 -292,58 -395,170c-50,55 -111,164 -126,226l-6,27h522h522z"></path></g></g></g></svg>