<svg version="1.1" xmlns="http://www.w3.org/2000/svg" xmlns:xlink="http://www.w3.org/1999/xlink" width="512.000000pt" height="512.000000pt" viewBox="0,0,256,256"><g fill="#b8b5b5" fill-rule="nonzero" stroke="none" stroke-width="1" stroke-linecap="butt" stroke-linejoin="miter" stroke-miterlimit="10" stroke-dasharray="" stroke-dashoffset="0" font-family="none" font-weight="none" font-size="none" text-anchor="none" style="mix-blend-mode: normal"><g transform="translate(0,0)"><g><g transform="translate(0.02186,0.20386) scale(0.5,0.5)"><g transform="translate(0,512) scale(0.1,-0.1)"><path d="M3765,4663c-54,-7 -129,-35 -180,-68c-29,-19 -647,-632 -1476,-1466l-1426,-1434l-117,-567c-64,-312 -116,-580 -116,-596c0,-39 37,-72 80,-72c19,0 242,41 495,90c253,50 510,100 570,112l110,21l1438,1436c791,790 1451,1456 1466,1481c80,124 80,295 1,420c-16,25 -150,165 -297,311c-290,288 -318,310 -434,329c-35,5 -68,9 -74,8c-5,0 -23,-3 -40,-5zM3915,4481c26,-12 133,-113 306,-287c206,-208 269,-278 279,-308c15,-47 8,-141 -13,-182c-9,-16 -86,-99 -171,-184l-156,-155l-395,395l-395,395l143,143c168,170 216,202 302,202c37,0 75,-7 100,-19zM2880,2085c-716,-716 -1167,-1160 -1171,-1152c-3,6 -18,65 -34,131l-27,119l1035,1036c569,570 1040,1046 1046,1058c8,15 8,30 0,52c-13,37 -35,51 -81,51c-30,0 -114,-81 -1078,-1045l-1045,-1045h-113h-112v112v113l1045,1045c962,963 1045,1048 1045,1078c0,39 -38,82 -72,82c-13,0 -35,-7 -48,-16c-14,-9 -486,-477 -1050,-1040l-1025,-1024l-138,32l-138,32l1168,1168l1168,1168l395,-395l395,-395zM993,1525l147,-38v-158c0,-211 -12,-199 198,-199h157l40,-154c22,-85 37,-157 35,-159c-3,-2 -84,-16 -180,-31l-175,-26l-232,232l-231,233l36,173c22,106 40,171 46,169c6,-3 77,-21 159,-42zM1026,713c-3,-4 -390,-82 -393,-80c-1,2 27,148 68,346l11,54l159,-159c87,-87 157,-159 155,-161z"></path></g></g></g></g></g></svg>