<svg version="1.1" xmlns="http://www.w3.org/2000/svg" xmlns:xlink="http://www.w3.org/1999/xlink" width="512.000000pt" height="512.000000pt" viewBox="0,0,256,256"><g fill="#b8b5b5" fill-rule="nonzero" stroke="none" stroke-width="1" stroke-linecap="butt" stroke-linejoin="miter" stroke-miterlimit="10" stroke-dasharray="" stroke-dashoffset="0" font-family="none" font-weight="none" font-size="none" text-anchor="none" style="mix-blend-mode: normal"><g transform="translate(0,0)"><g><g transform="translate(-0.05336,0.05853) scale(0.5,0.5)"><g transform="translate(0,512) scale(0.1,-0.1)"><path d="M1930,5109c-494,-51 -951,-269 -1306,-623c-246,-246 -412,-514 -518,-836c-141,-428 -141,-872 0,-1300c106,-323 273,-592 520,-837c488,-485 1153,-705 1839,-608c353,50 707,195 985,404c30,23 57,40 61,39c4,-2 307,-298 673,-658c417,-410 680,-661 704,-672c98,-46 208,12 228,120c16,84 72,24 -1024,1106l-342,338l58,68c250,289 415,655 478,1055c24,156 24,442 0,600c-71,459 -272,853 -607,1186c-460,457 -1101,684 -1749,618zM2409,4774c404,-59 759,-235 1040,-515c344,-345 523,-774 523,-1259c0,-179 -16,-302 -58,-457c-212,-788 -931,-1333 -1759,-1333c-493,0 -951,187 -1293,529c-232,232 -387,500 -471,811c-74,277 -74,623 0,900c168,626 665,1119 1292,1281c228,59 507,76 726,43z"></path></g></g></g></g></g></svg>