<svg version="1.1" xmlns="http://www.w3.org/2000/svg" xmlns:xlink="http://www.w3.org/1999/xlink" width="512.000000pt" height="512.000000pt" viewBox="0,0,256,256"><g fill="#fffefe" fill-rule="nonzero" stroke="none" stroke-width="1" stroke-linecap="butt" stroke-linejoin="miter" stroke-miterlimit="10" stroke-dasharray="" stroke-dashoffset="0" font-family="none" font-weight="none" font-size="none" text-anchor="none" style="mix-blend-mode: normal"><g transform="translate(-0.17285,-0.30985) scale(0.5,0.5)"><g transform="translate(0,512) scale(0.1,-0.1)"><path d="M3181,5010c-82,-18 -170,-67 -230,-129c-80,-83 -131,-180 -241,-455c-100,-249 -151,-358 -222,-474c-116,-190 -287,-363 -478,-484c-59,-37 -532,-288 -543,-288c-4,0 -7,17 -7,38c0,49 -45,121 -96,153l-39,24h-405c-455,0 -465,-1 -579,-75c-103,-67 -171,-153 -213,-270l-23,-65l-3,-1160c-2,-821 1,-1180 8,-1227c31,-184 168,-340 349,-400c62,-20 90,-22 433,-26c429,-5 448,-2 516,72c27,29 43,57 47,83c4,21 8,43 10,50c3,8 132,-21 417,-93c754,-192 703,-186 1544,-191c454,-3 689,-1 729,6c210,39 356,216 357,432c0,87 -21,169 -57,223c-14,20 -25,39 -25,40c0,2 24,18 53,34c100,56 182,173 208,293c7,30 9,86 6,129c-5,61 -13,89 -44,151l-39,76l53,28c67,35 133,107 175,192c59,121 49,304 -23,418c-16,25 -29,49 -29,53c0,4 21,20 46,36c129,82 210,266 185,424c-29,185 -148,332 -309,382c-61,19 -94,20 -673,20h-609l56,85c148,228 244,508 274,804c15,156 13,621 -4,702c-37,173 -159,313 -322,369c-68,24 -189,33 -253,20zM3386,4776c61,-28 115,-82 146,-145c21,-42 23,-66 30,-256c13,-421 -23,-675 -132,-927c-54,-123 -104,-207 -214,-358c-76,-105 -91,-130 -91,-162c0,-28 8,-45 28,-65l27,-28l733,-5c726,-5 732,-5 772,-27c51,-27 79,-57 104,-113c46,-102 12,-232 -78,-295l-43,-30l-358,-5c-344,-5 -360,-6 -387,-26c-36,-27 -51,-81 -33,-124c23,-57 42,-60 326,-60c279,0 311,-5 369,-52c56,-47 79,-101 79,-183c0,-102 -47,-180 -133,-218c-17,-8 -152,-14 -404,-17l-379,-5l-24,-28c-29,-33 -32,-95 -8,-132c9,-14 32,-29 53,-35c20,-5 150,-10 291,-10c285,0 309,-5 364,-71c42,-49 56,-90 56,-159c0,-99 -40,-168 -125,-213c-39,-21 -53,-22 -400,-25c-198,-1 -370,-4 -383,-7c-26,-6 -62,-60 -62,-93c0,-13 7,-36 15,-51c26,-51 55,-56 345,-56c254,0 267,-1 306,-22c174,-93 160,-355 -24,-447c-30,-16 -95,-17 -745,-14l-712,4l-154,28c-152,27 -389,85 -851,208l-235,63l-3,1166l-2,1166l247,118c293,140 412,206 525,290c307,231 472,470 687,997c44,109 94,225 111,259c39,76 103,146 155,170c58,27 147,25 211,-5zM1260,1805v-1405l-327,-2c-421,-3 -401,-4 -459,25c-58,30 -103,75 -135,137l-24,45l-3,1177c-2,1167 -2,1177 18,1231c36,96 131,172 235,187c27,4 195,8 373,9l322,1z"></path></g></g></g></svg>