<svg version="1.1" xmlns="http://www.w3.org/2000/svg" xmlns:xlink="http://www.w3.org/1999/xlink" width="512.000000pt" height="512.000000pt" viewBox="0,0,256,256"><g fill="#b8b5b5" fill-rule="nonzero" stroke="none" stroke-width="1" stroke-linecap="butt" stroke-linejoin="miter" stroke-miterlimit="10" stroke-dasharray="" stroke-dashoffset="0" font-family="none" font-weight="none" font-size="none" text-anchor="none" style="mix-blend-mode: normal"><g transform="translate(0,0)"><g><g transform="translate(0.04299,-0.01648) scale(0.5,0.5)"><g transform="translate(0,512) scale(0.1,-0.1)"><path d="M2135,4689c-273,-35 -506,-154 -688,-350c-252,-272 -358,-669 -278,-1037c69,-316 258,-566 556,-736c44,-25 72,-46 62,-46c-9,0 -68,-16 -130,-36c-300,-97 -558,-251 -784,-468c-182,-175 -308,-344 -416,-561c-125,-252 -157,-392 -123,-539c48,-201 219,-380 411,-431c52,-13 224,-15 1360,-15c1112,0 1308,-2 1355,-15c343,-92 734,11 1001,262c379,357 445,936 159,1371c-306,463 -913,616 -1405,353l-91,-49l-39,20c-21,11 -103,42 -182,68l-143,47l91,54c266,157 445,395 532,707c18,67 21,103 21,272c0,215 -9,265 -77,435c-187,466 -687,757 -1192,694zM2492,4511c168,-38 324,-116 442,-223c419,-378 419,-1078 1,-1455c-197,-178 -507,-277 -769,-245c-406,50 -722,324 -838,728c-20,68 -23,102 -23,244c0,180 13,245 75,392c59,138 176,288 302,385c120,92 302,169 453,193c84,13 254,4 357,-19zM2512,2405c132,-17 282,-52 388,-90c41,-15 77,-29 79,-31c2,-2 -22,-31 -54,-66c-270,-299 -346,-734 -196,-1124c60,-154 171,-311 288,-406l65,-53l-269,-3c-147,-1 -664,-1 -1148,0l-880,3l-57,27c-143,67 -248,224 -248,371c0,134 147,445 311,657c301,389 748,648 1233,714c137,19 351,19 488,1zM3965,2375c384,-97 642,-420 671,-838c27,-393 -238,-778 -621,-906c-154,-51 -289,-62 -439,-36c-502,88 -837,554 -752,1045c75,430 370,709 806,764c75,9 242,-5 335,-29z"></path><path d="M3992,2060c-15,-14 -22,-33 -22,-58c0,-34 9,-46 95,-132c52,-52 95,-98 95,-102c0,-5 -250,-8 -555,-8c-542,0 -555,0 -575,-20c-20,-20 -26,-63 -14,-95c17,-44 26,-45 702,-45c441,0 649,3 671,11c37,13 51,35 51,80c0,29 -20,53 -178,211c-163,163 -181,178 -213,178c-22,0 -44,-8 -57,-20z"></path><path d="M3042,1433c-21,-8 -44,-62 -37,-86c8,-27 341,-365 372,-377c28,-12 80,6 93,30c6,10 10,33 10,51c0,27 -15,47 -97,130l-97,99h536c552,0 588,2 608,40c17,32 11,75 -13,98l-23,22l-670,-1c-368,0 -675,-3 -682,-6z"></path></g></g></g></g></g></svg>