<svg version="1.1" xmlns="http://www.w3.org/2000/svg" xmlns:xlink="http://www.w3.org/1999/xlink" width="512.000000pt" height="512.000000pt" viewBox="0,0,256,256"><g fill="#ffffff" fill-rule="nonzero" stroke="none" stroke-width="1" stroke-linecap="butt" stroke-linejoin="miter" stroke-miterlimit="10" stroke-dasharray="" stroke-dashoffset="0" font-family="none" font-weight="none" font-size="none" text-anchor="none" style="mix-blend-mode: normal"><g transform="translate(0,-0.01484) scale(0.5,0.5)"><g transform="translate(0,512) scale(0.1,-0.1)"><path d="M2450,3939c-35,-15 -304,-279 -1223,-1197c-693,-692 -1187,-1193 -1198,-1215c-63,-121 -11,-279 112,-341c68,-33 162,-36 229,-5c35,15 284,259 1118,1092l1072,1072l1073,-1072c833,-833 1082,-1077 1117,-1092c67,-31 161,-28 229,5c123,62 175,220 112,341c-11,22 -505,523 -1198,1215c-919,918 -1188,1182 -1223,1197c-30,14 -66,21 -110,21c-44,0 -80,-7 -110,-21z"></path></g></g></g></svg>